<?xml version="1.0" standalone="no"?>
<!DOCTYPE svg PUBLIC "-//W3C//DTD SVG 20010904//EN"
 "http://www.w3.org/TR/2001/REC-SVG-20010904/DTD/svg10.dtd">
<svg version="1.0" xmlns="http://www.w3.org/2000/svg"
 width="512.000000pt" height="512.000000pt" viewBox="0 0 512.000000 512.000000"
 preserveAspectRatio="xMidYMid meet">
<metadata>
Created by potrace 1.14, written by Peter Selinger 2001-2017
</metadata>
<g transform="translate(0.000000,512.000000) scale(0.100000,-0.100000)"
fill="#000000" stroke="none">
<path d="M2452 4950 c-103 -22 -212 -95 -212 -142 0 -12 13 -74 29 -135 l29
-113 -85 0 c-76 0 -86 -2 -108 -25 -25 -24 -25 -26 -25 -215 0 -189 0 -191 25
-215 22 -23 32 -25 120 -25 l95 0 0 -80 c0 -67 -3 -80 -16 -80 -81 0 -190 -89
-213 -173 -8 -28 -11 -68 -8 -97 l6 -50 -60 0 c-50 0 -64 -4 -84 -25 -14 -13
-25 -34 -25 -47 0 -13 38 -174 85 -358 94 -376 91 -370 177 -370 47 0 50 -1
45 -22 -3 -13 -9 -49 -12 -80 l-7 -58 -64 0 -64 0 0 -80 0 -80 53 0 53 0 -51
-383 c-28 -210 -55 -389 -60 -397 -5 -8 -132 -190 -282 -404 l-273 -389 0
-133 0 -134 -28 0 c-42 0 -127 -46 -157 -85 -57 -76 -72 -173 -36 -250 23 -51
98 -118 149 -133 29 -9 319 -12 1114 -12 1216 0 1132 -5 1211 79 85 91 90 213
13 314 -31 40 -115 87 -158 87 l-28 0 0 134 0 133 -273 389 c-150 214 -277
396 -282 404 -5 8 -32 187 -60 397 l-51 383 53 0 53 0 0 80 0 80 -64 0 -64 0
-7 58 c-3 31 -9 67 -12 80 -5 21 -2 22 45 22 86 0 83 -6 177 370 47 184 85
345 85 358 0 13 -11 34 -25 47 -20 21 -34 25 -84 25 l-60 0 6 50 c8 71 -12
132 -64 190 -42 46 -107 80 -155 80 -16 0 -18 9 -18 80 l0 80 95 0 c88 0 98 2
120 25 25 24 25 26 25 215 0 189 0 191 -25 215 -22 23 -32 25 -108 25 l-85 0
30 120 c17 68 28 130 24 144 -8 31 -75 80 -146 107 -63 24 -209 34 -278 19z
m198 -166 l57 -16 -33 -131 c-40 -159 -41 -180 -9 -212 22 -23 32 -25 120 -25
l95 0 0 -80 0 -80 -95 0 c-88 0 -98 -2 -120 -25 -24 -23 -25 -29 -25 -160 l0
-135 -80 0 -80 0 0 135 c0 131 -1 137 -25 160 -22 23 -32 25 -120 25 l-95 0 0
80 0 80 95 0 c88 0 98 2 120 25 32 32 31 53 -9 212 l-33 131 51 15 c67 20 117
20 186 1z m201 -1051 c29 -29 29 -77 0 -106 -21 -21 -29 -22 -279 -25 -279 -2
-296 0 -320 51 -11 22 -11 32 0 54 24 51 41 53 320 51 250 -3 258 -4 279 -25z
m159 -300 c0 -5 -25 -113 -57 -240 l-58 -233 -335 0 -335 0 -58 233 c-32 127
-57 235 -57 240 0 4 203 7 450 7 248 0 450 -3 450 -7z m-276 -690 c4 -31 9
-67 12 -80 l6 -23 -192 0 -192 0 6 23 c3 13 8 49 12 80 l7 57 167 0 167 0 7
-57z m41 -295 c3 -18 28 -204 55 -413 50 -378 51 -380 84 -430 18 -27 126
-183 240 -345 l207 -295 -401 -3 c-220 -1 -580 -1 -800 0 l-401 3 207 295
c114 162 222 318 240 345 33 50 34 52 84 430 27 209 52 395 55 413 l6 32 209
0 209 0 6 -32z m665 -1728 l0 -80 -880 0 -880 0 0 80 0 80 880 0 880 0 0 -80z
m194 -251 c55 -26 55 -112 0 -138 -35 -16 -2113 -16 -2148 0 -35 16 -52 61
-37 98 7 16 22 33 34 39 32 16 2117 16 2151 1z"/>
<path d="M1161 3584 c-253 -68 -410 -331 -346 -579 9 -32 30 -84 46 -116 l31
-58 -34 -40 c-82 -96 -77 -222 12 -312 25 -25 53 -50 62 -55 16 -9 17 -17 6
-97 l-12 -87 -63 0 -63 0 0 -80 0 -80 50 0 c34 0 50 -4 50 -12 0 -7 -22 -161
-48 -343 l-48 -330 -202 -244 -202 -243 0 -134 c0 -117 -2 -134 -16 -134 -108
0 -224 -125 -224 -240 0 -92 80 -202 166 -228 29 -8 151 -12 418 -12 l376 0 0
80 0 80 -365 0 c-249 0 -372 4 -389 11 -55 26 -55 112 0 138 17 7 140 11 389
11 l365 0 0 80 0 80 -280 0 -280 0 0 80 0 80 400 0 400 0 0 80 0 80 -351 2
-352 3 138 165 c76 91 144 174 151 185 7 11 37 188 66 393 l53 372 215 0 215
0 52 -361 c28 -198 54 -363 57 -366 5 -5 146 14 152 20 2 1 -19 157 -47 346
-27 190 -49 348 -49 353 0 4 23 8 50 8 l50 0 0 80 0 80 -63 0 -63 0 -12 87
c-11 80 -10 88 6 97 9 5 37 30 62 55 89 90 94 216 12 312 l-34 40 31 58 c102
192 73 406 -76 562 -118 124 -300 177 -462 133z m253 -178 c66 -30 122 -87
155 -156 50 -107 27 -259 -52 -342 l-26 -28 -209 0 -209 0 -28 28 c-81 79
-105 232 -53 342 75 162 261 231 422 156z m157 -715 c16 -16 29 -39 29 -51 0
-12 -13 -35 -29 -51 l-29 -29 -262 0 -262 0 -29 29 c-16 16 -29 39 -29 51 0
12 13 35 29 51 l29 29 262 0 262 0 29 -29z m-112 -360 c6 -39 11 -75 11 -80 0
-7 -63 -11 -190 -11 -127 0 -190 4 -190 11 0 5 5 41 11 80 l12 69 167 0 167 0
12 -69z"/>
<path d="M3721 3584 c-253 -68 -410 -331 -346 -579 9 -32 30 -84 46 -116 l31
-58 -34 -40 c-82 -96 -77 -222 12 -312 25 -25 53 -50 62 -55 16 -9 17 -17 6
-97 l-12 -87 -63 0 -63 0 0 -80 0 -80 50 0 c28 0 50 -4 50 -8 0 -11 -87 -624
-95 -668 l-5 -31 76 -12 c41 -7 78 -10 81 -8 3 3 28 168 56 366 l52 361 215 0
215 0 44 -307 c24 -170 48 -339 54 -377 l10 -69 148 -178 c82 -98 149 -181
149 -184 0 -3 -157 -5 -350 -5 l-350 0 0 -80 0 -80 400 0 400 0 0 -80 0 -80
-280 0 -280 0 0 -80 0 -80 365 0 c249 0 372 -4 389 -11 55 -26 55 -112 0 -138
-17 -7 -140 -11 -389 -11 l-365 0 0 -80 0 -80 378 0 c438 0 444 1 515 80 90
100 90 220 0 320 -42 46 -107 80 -155 80 -16 0 -18 11 -18 134 l0 134 -202
243 -202 243 -48 330 c-26 182 -48 337 -48 344 0 8 16 12 50 12 l50 0 0 80 0
80 -63 0 -63 0 -12 87 c-11 80 -10 88 6 97 9 5 37 30 62 55 89 90 94 216 12
312 l-34 40 31 58 c102 192 73 406 -76 562 -118 124 -300 177 -462 133z m253
-178 c66 -30 122 -87 155 -156 50 -107 27 -259 -52 -342 l-26 -28 -209 0 -209
0 -28 28 c-81 79 -105 232 -53 342 75 162 261 231 422 156z m157 -715 c16 -16
29 -39 29 -51 0 -12 -13 -35 -29 -51 l-29 -29 -262 0 -262 0 -29 29 c-16 16
-29 39 -29 51 0 12 13 35 29 51 l29 29 262 0 262 0 29 -29z m-112 -360 c6 -39
11 -75 11 -80 0 -7 -63 -11 -190 -11 -127 0 -190 4 -190 11 0 5 5 41 11 80
l12 69 167 0 167 0 12 -69z"/>
</g>
</svg>
